# xmcd
#
# Track frame offsets: 
#        150
#        4551
#        26596
#        37219
#        47799
#        67873
#        81089
#        89795
#        112200
#        126877
#        135513
#        145133
#        154105
#        162954
#        190029
#
# Disc length: 3335 seconds
#
# Revision: 0
# Processed by: cddbd v1.5.2PL0 Copyright (c) Steve Scherf et al.
# Submitted via: ExactAudioCopy v0.99pb4
#
DISCID=ca0d050f
DTITLE=Triooo - Zo dan!
DYEAR=1998
DGENRE=Other
TTITLE0=Bennie
TTITLE1=Oonze Iene
TTITLE2=t Liepke
TTITLE3=Versierd
TTITLE4=Bookhoalder teagn kolnboer
TTITLE5=Eenvoudig mens
TTITLE6=Neusje peuter
TTITLE7=Weglopenblues
TTITLE8=Rins
TTITLE9=Cowboy
TTITLE10=A'j, a'j
TTITLE11=Doar gung e hen
TTITLE12=Mien Volvo (Dafje)
TTITLE13=Woarum
TTITLE14=Hawaii
EXTD=
EXTT0=
EXTT1=
EXTT2=
EXTT3=
EXTT4=
EXTT5=
EXTT6=
EXTT7=
EXTT8=
EXTT9=
EXTT10=
EXTT11=
EXTT12=
EXTT13=
EXTT14=
PLAYORDER=
